<svg xmlns="http://www.w3.org/2000/svg" shape-rendering="geometricPrecision" text-rendering="geometricPrecision" image-rendering="optimizeQuality" fill-rule="evenodd" clip-rule="evenodd" viewBox="0 0 512 468.553"><path fill-rule="nonzero" d="M97.632 0h316.736c26.861 0 51.272 10.989 68.953 28.673C501.017 46.363 512 70.787 512 97.632v273.293c0 26.841-10.995 51.255-28.682 68.945-17.691 17.691-42.112 28.683-68.95 28.683H97.632c-26.845 0-51.269-10.986-68.959-28.676C10.989 422.193 0 397.785 0 370.925V97.632c0-26.867 10.983-51.281 28.667-68.965C46.351 10.983 70.765 0 97.632 0zm140.509 314.599l-3.333-105.58 36.408-1.151 3.276 103.999 42.188-43.498 26.112 25.404-87.819 90.577-85.765-88.532 26.125-25.404 42.808 44.188v-.003zM28.619 122.962H88.37l36.214-92.199c.286-.726.62-1.441.999-2.144H97.632c-18.963 0-36.218 7.77-48.731 20.282-12.512 12.513-20.282 29.768-20.282 48.731v25.33zm122.084-94.343l-37.057 94.343h108.69l36.129-91.983c.315-.798.687-1.587 1.116-2.36H150.703zm133.744 0l-37.054 94.343h105.793l36.215-92.199c.286-.726.62-1.441.998-2.144H284.447zm131.067.009l-37.051 94.334h104.918v-25.33c0-18.947-7.776-36.205-20.295-48.724-12.258-12.261-29.068-19.974-47.572-20.28zm67.867 122.947H28.619v219.35c0 18.956 7.776 36.204 20.289 48.717 12.519 12.518 29.777 20.292 48.724 20.292h316.736c18.941 0 36.196-7.78 48.715-20.299 12.518-12.518 20.298-29.773 20.298-48.71v-219.35z"/></svg>